<svg width="764" height="696" viewBox="0 0 764 696" fill="none" xmlns="http://www.w3.org/2000/svg">
<path d="M294.25 683.5C449.58 683.5 575.5 557.58 575.5 402.25C575.5 246.92 449.58 121 294.25 121C138.92 121 13 246.92 13 402.25C13 557.58 138.92 683.5 294.25 683.5Z" fill="#FFDED5"/>
<path d="M44.25 521C61.5089 521 75.5 507.009 75.5 489.75C75.5 472.491 61.5089 458.5 44.25 458.5C26.9911 458.5 13 472.491 13 489.75C13 507.009 26.9911 521 44.25 521Z" stroke="#4C241D" stroke-width="25" stroke-linecap="round" stroke-linejoin="round"/>
<path d="M113.338 271L99.9125 277.713C97.2954 279.014 94.9605 280.818 93.0413 283.022C91.122 285.226 89.6561 287.787 88.7274 290.558C87.7986 293.329 87.4252 296.257 87.6286 299.172C87.8319 302.088 88.608 304.935 89.9125 307.55L157.812 443.35C159.836 447.395 160.577 451.96 159.937 456.437L156.45 480.837C156.001 483.992 156.234 487.207 157.135 490.264C158.036 493.321 159.583 496.149 161.671 498.556C163.759 500.963 166.34 502.893 169.24 504.217C172.139 505.54 175.288 506.225 178.475 506.225C182.868 506.222 187.161 504.917 190.813 502.475L228.175 477.563C231.829 475.126 236.121 473.821 240.513 473.812H260.112C266.011 473.809 271.668 471.464 275.838 467.291C280.008 463.119 282.35 457.461 282.35 451.562V447.475C282.353 441.578 284.697 435.924 288.867 431.754C293.036 427.585 298.691 425.241 304.587 425.237H418.85C421.771 425.235 424.663 425.809 427.361 426.927C430.06 428.044 432.511 429.683 434.575 431.75L476.75 473.862V490.112H508C512.961 490.114 517.78 491.773 521.691 494.826C525.602 497.878 528.381 502.15 529.587 506.962L537.35 554.213C538.561 558.994 541.326 563.237 545.211 566.276C549.096 569.315 553.88 570.976 558.813 571H592.462C596.594 570.998 600.644 569.847 604.158 567.675C607.673 565.502 610.514 562.395 612.363 558.7L616.25 550.913C618.099 547.219 620.941 544.113 624.455 541.943C627.97 539.773 632.019 538.624 636.15 538.625H658.062C666.05 538.625 673.413 518.15 677.375 511.225L733.937 412.225C735.128 410.151 735.973 407.896 736.437 405.55L750.288 336.313C751.338 331.046 750.45 325.577 747.788 320.912L691.375 222.25C688.651 217.522 684.281 213.962 679.1 212.25L652.087 203.25C648.058 201.905 644.497 199.434 641.828 196.129C639.159 192.823 637.492 188.823 637.025 184.6L631.837 137.912C631.426 134.222 630.098 130.693 627.974 127.647C625.849 124.601 622.996 122.136 619.675 120.475L610.412 115.85C606.718 114.001 603.61 111.16 601.438 107.646C599.266 104.131 598.114 100.082 598.112 95.95V61H581.925L543.95 124.287C541.068 129.095 536.476 132.636 531.094 134.203C525.712 135.77 519.937 135.246 514.925 132.738L485.85 118.2C481.061 115.806 477.297 111.765 475.246 106.82C473.196 101.874 472.997 96.355 474.688 91.275L475.025 90.275C476.138 86.9317 476.44 83.3719 475.908 79.8888C475.375 76.4057 474.024 73.0988 471.963 70.2403C469.903 67.3818 467.193 65.0535 464.057 63.447C460.921 61.8406 457.449 61.0019 453.925 61H401.425C397.293 61.0017 393.244 62.1531 389.729 64.3254C386.215 66.4977 383.374 69.6051 381.525 73.3L363.275 109.8C361.012 114.324 357.276 117.942 352.681 120.057C348.087 122.173 342.908 122.66 338 121.438L305.237 113.25C300.905 112.165 296.346 112.41 292.154 113.953C287.963 115.496 284.333 118.265 281.738 121.9L212.75 218.412C210.644 221.365 207.845 223.756 204.6 225.375L168.187 243.587" fill="#FFCE56"/>
<path d="M113.338 271L99.9125 277.713C97.2954 279.014 94.9605 280.818 93.0413 283.022C91.122 285.226 89.6561 287.787 88.7274 290.558C87.7986 293.329 87.4252 296.257 87.6286 299.172C87.8319 302.088 88.608 304.935 89.9125 307.55L157.812 443.35C159.836 447.395 160.577 451.96 159.937 456.437L156.45 480.837C156.001 483.992 156.234 487.207 157.135 490.264C158.036 493.321 159.583 496.149 161.671 498.556C163.759 500.963 166.34 502.893 169.24 504.217C172.139 505.54 175.288 506.225 178.475 506.225C182.868 506.222 187.161 504.917 190.813 502.475L228.175 477.563C231.829 475.126 236.121 473.821 240.513 473.812H260.112C266.011 473.809 271.668 471.464 275.838 467.291C280.008 463.119 282.35 457.461 282.35 451.562V447.475C282.353 441.578 284.697 435.924 288.867 431.754C293.036 427.585 298.691 425.241 304.587 425.237H418.85C421.771 425.235 424.663 425.809 427.361 426.927C430.06 428.044 432.511 429.683 434.575 431.75L476.75 473.862V490.112H508C512.961 490.114 517.78 491.773 521.691 494.826C525.602 497.878 528.381 502.15 529.587 506.962L537.35 554.213C538.561 558.994 541.326 563.237 545.211 566.276C549.096 569.315 553.88 570.976 558.813 571H592.462C596.594 570.998 600.644 569.847 604.158 567.675C607.673 565.502 610.514 562.395 612.363 558.7L616.25 550.913C618.099 547.219 620.941 544.113 624.455 541.943C627.97 539.773 632.019 538.624 636.15 538.625H658.062C666.05 538.625 673.413 518.15 677.375 511.225L733.937 412.225C735.128 410.151 735.973 407.896 736.437 405.55L750.288 336.313C751.338 331.046 750.45 325.577 747.788 320.912L691.375 222.25C688.651 217.522 684.281 213.962 679.1 212.25L652.087 203.25C648.058 201.905 644.497 199.434 641.828 196.129C639.159 192.823 637.492 188.823 637.025 184.6L631.837 137.912C631.426 134.222 630.098 130.693 627.974 127.647C625.849 124.601 622.996 122.136 619.675 120.475L610.412 115.85C606.718 114.001 603.61 111.16 601.438 107.646C599.266 104.131 598.114 100.082 598.112 95.95V61H581.925L543.95 124.287C541.068 129.095 536.476 132.636 531.094 134.203C525.712 135.77 519.937 135.246 514.925 132.738L485.85 118.2C481.061 115.806 477.297 111.765 475.246 106.82C473.196 101.874 472.997 96.355 474.688 91.275L475.025 90.275C476.138 86.9317 476.44 83.3719 475.908 79.8888C475.375 76.4057 474.024 73.0988 471.963 70.2403C469.903 67.3818 467.193 65.0535 464.057 63.447C460.921 61.8406 457.449 61.0019 453.925 61H401.425C397.293 61.0017 393.244 62.1531 389.729 64.3254C386.215 66.4977 383.374 69.6051 381.525 73.3L363.275 109.8C361.012 114.324 357.276 117.942 352.681 120.057C348.087 122.173 342.908 122.66 338 121.438L305.237 113.25C300.905 112.165 296.346 112.41 292.154 113.953C287.963 115.496 284.333 118.265 281.738 121.9L212.75 218.412C210.644 221.365 207.845 223.756 204.6 225.375L168.187 243.587" stroke="#4C241D" stroke-width="25" stroke-linecap="round" stroke-linejoin="round"/>
<path d="M234.75 609.2C242.13 609.2 248.113 603.217 248.113 595.837C248.113 588.458 242.13 582.475 234.75 582.475C227.37 582.475 221.387 588.458 221.387 595.837C221.387 603.217 227.37 609.2 234.75 609.2Z" fill="#4C241D"/>
<path d="M375.5 571V596" stroke="#4C241D" stroke-width="25" stroke-linecap="round" stroke-linejoin="round"/>
<path d="M375.5 646V671" stroke="#4C241D" stroke-width="25" stroke-linecap="round" stroke-linejoin="round"/>
<path d="M325.5 621H350.5" stroke="#4C241D" stroke-width="25" stroke-linecap="round" stroke-linejoin="round"/>
<path d="M400.5 621H425.5" stroke="#4C241D" stroke-width="25" stroke-linecap="round" stroke-linejoin="round"/>
<path d="M551.75 621H599.25C600.693 620.999 602.113 621.367 603.374 622.069C604.635 622.771 605.696 623.784 606.455 625.012C607.214 626.239 607.647 627.641 607.711 629.083C607.776 630.525 607.471 631.959 606.825 633.25L588 683.5L544.125 633.25C543.477 631.955 543.172 630.516 543.239 629.07C543.306 627.624 543.743 626.219 544.508 624.99C545.273 623.761 546.341 622.749 547.608 622.051C548.876 621.352 550.302 620.99 551.75 621Z" fill="#FFCE56" stroke="#4C241D" stroke-width="25" stroke-linecap="round" stroke-linejoin="round"/>
<path d="M185.262 12.575C159.268 12.8947 134.465 23.5241 116.306 42.1263C98.1467 60.7285 88.1181 85.7807 88.425 111.775C88.425 166.563 185.262 296 185.262 296C185.262 296 282.1 166.563 282.1 111.775C282.41 85.7797 272.383 60.7256 254.223 42.1227C236.063 23.5197 211.258 12.8914 185.262 12.575ZM185.262 161.987C175.279 162.234 165.45 159.498 157.029 154.13C148.608 148.763 141.978 141.007 137.987 131.853C133.995 122.699 132.823 112.563 134.62 102.74C136.417 92.917 141.101 83.8525 148.075 76.7045C155.048 69.5566 163.994 64.6498 173.77 62.6108C183.546 60.5718 193.708 61.4933 202.957 65.2576C212.207 69.0218 220.124 75.4579 225.698 83.7437C231.272 92.0295 234.249 101.789 234.25 111.775C234.407 124.928 229.335 137.605 220.149 147.021C210.964 156.436 198.415 161.819 185.262 161.987Z" fill="#F96E43" stroke="#4C241D" stroke-width="25" stroke-linecap="round" stroke-linejoin="round"/>
<path d="M585.262 225.075C559.268 225.395 534.465 236.024 516.306 254.626C498.147 273.228 488.118 298.281 488.425 324.275C488.425 379.062 585.262 508.5 585.262 508.5C585.262 508.5 682.1 379.062 682.1 324.275C682.41 298.28 672.383 273.226 654.223 254.623C636.063 236.02 611.258 225.391 585.262 225.075ZM585.262 374.488C575.279 374.734 565.45 371.998 557.029 366.63C548.608 361.263 541.978 353.507 537.987 344.353C533.995 335.199 532.823 325.063 534.62 315.24C536.417 305.417 541.101 296.352 548.075 289.205C555.048 282.057 563.994 277.15 573.77 275.111C583.546 273.072 593.708 273.993 602.957 277.758C612.207 281.522 620.124 287.958 625.698 296.244C631.272 304.53 634.249 314.289 634.25 324.275C634.407 337.428 629.335 350.105 620.149 359.521C610.964 368.936 598.415 374.319 585.262 374.488Z" fill="#A9BA5A" stroke="#4C241D" stroke-width="25" stroke-linecap="round" stroke-linejoin="round"/>
</svg>
